<?xml version="1.0" standalone="no"?>
<!DOCTYPE svg PUBLIC "-//W3C//DTD SVG 20010904//EN"
 "http://www.w3.org/TR/2001/REC-SVG-20010904/DTD/svg10.dtd">
<svg version="1.0" xmlns="http://www.w3.org/2000/svg"
 width="592.000000pt" height="247.000000pt" viewBox="0 0 592.000000 247.000000"
 preserveAspectRatio="xMidYMid meet">

<g transform="translate(0.000000,247.000000) scale(0.100000,-0.100000)"
fill="#000000" stroke="none">
<path d="M870 1627 c-188 -64 -315 -209 -356 -407 -33 -158 16 -324 132 -450
90 -97 94 -97 87 7 -3 52 -1 111 6 144 16 74 93 208 161 279 102 106 262 190
369 193 59 2 61 0 45 -50 -9 -31 10 -29 24 2 27 58 12 75 -61 75 -105 -1 -278
-89 -383 -195 -125 -126 -185 -254 -187 -399 l-1 -89 -46 50 c-183 199 -172
513 24 701 293 282 775 123 847 -280 37 -204 -73 -427 -257 -525 -149 -79
-291 -82 -467 -8 -13 5 -16 3 -11 -9 10 -27 112 -58 209 -63 157 -9 292 42
400 151 162 164 202 404 100 612 -56 114 -188 225 -313 264 -92 28 -235 27
-322 -3z"/>
<path d="M947 1396 c-119 -43 -205 -162 -195 -273 l3 -36 39 57 c54 78 163
177 240 217 41 21 60 36 53 41 -19 12 -98 8 -140 -6z"/>
<path d="M1812 1133 l3 -268 160 0 c146 1 164 3 203 23 53 28 82 73 82 130 0
53 -22 97 -60 121 l-30 18 29 28 c63 59 46 160 -31 195 -37 17 -66 20 -201 20
l-157 0 2 -267z m286 161 c25 -18 29 -60 8 -89 -12 -16 -29 -20 -95 -23 l-81
-4 0 66 0 66 73 0 c49 0 80 -5 95 -16z m24 -211 c23 -20 24 -80 1 -105 -13
-15 -32 -18 -105 -18 l-88 0 0 70 0 70 87 0 c66 0 91 -4 105 -17z"/>
<path d="M2332 1133 l3 -268 53 -3 52 -3 0 270 0 271 -55 0 -55 0 2 -267z"/>
<path d="M3422 1133 l3 -268 53 -3 52 -3 0 69 c0 54 4 72 18 85 10 10 21 17
25 17 3 0 29 -38 58 -85 l52 -85 58 0 c33 0 59 4 59 10 0 6 -35 62 -77 125
l-77 116 69 69 69 70 -59 0 -59 0 -68 -67 -68 -67 0 142 0 142 -55 0 -55 0 2
-267z"/>
<path d="M3860 1130 l0 -270 130 0 c167 0 222 12 273 59 31 29 40 46 44 82 7
57 -17 114 -56 136 l-29 17 29 34 c37 42 41 114 7 157 -37 47 -72 55 -243 55
l-155 0 0 -270z m290 160 c26 -26 25 -62 -1 -86 -15 -14 -40 -20 -95 -22 l-74
-4 0 66 0 66 75 0 c62 0 79 -4 95 -20z m20 -210 c11 -11 20 -33 20 -50 0 -54
-28 -70 -125 -70 l-85 0 0 70 0 70 85 0 c72 0 88 -3 105 -20z"/>
<path d="M1140 1336 c-78 -31 -167 -95 -232 -164 -54 -59 -118 -157 -118 -182
0 -27 64 -90 117 -117 107 -52 244 -29 326 55 117 120 106 316 -24 419 -11 9
-26 7 -69 -11z"/>
<path d="M2625 1246 c-73 -34 -109 -95 -110 -186 0 -124 77 -204 200 -204 66
1 105 16 147 61 36 38 50 77 50 145 0 70 -23 121 -75 162 -34 27 -47 31 -110
33 -46 2 -83 -2 -102 -11z m150 -90 c45 -46 42 -158 -6 -202 -31 -28 -84 -23
-117 9 -24 25 -27 35 -27 96 0 60 3 73 24 95 33 35 92 36 126 2z"/>
<path d="M3085 1246 c-113 -51 -149 -209 -73 -319 48 -67 172 -91 254 -49 45
23 71 56 81 102 l6 30 -51 0 c-45 0 -51 -2 -62 -29 -25 -62 -114 -59 -144 4
-37 77 -4 186 58 193 44 5 72 -5 84 -33 10 -22 18 -25 62 -25 41 0 50 3 50 18
0 31 -39 81 -79 102 -47 24 -140 27 -186 6z"/>
<path d="M4475 1244 c-76 -41 -107 -95 -107 -184 0 -106 56 -179 154 -199 138
-28 243 58 243 199 0 77 -26 132 -82 170 -47 32 -161 40 -208 14z m155 -89
c31 -34 39 -118 15 -168 -30 -63 -113 -71 -149 -15 -36 56 -27 162 17 193 34
24 89 19 117 -10z"/>
<path d="M4870 1163 c33 -47 60 -90 60 -95 0 -4 -29 -50 -65 -102 -36 -52 -65
-97 -65 -100 0 -3 25 -6 55 -6 55 0 56 1 88 46 17 26 37 53 43 62 9 13 18 5
53 -46 l42 -62 54 0 c30 0 55 5 55 10 0 6 -30 53 -66 106 l-66 95 61 90 62 89
-59 0 -60 0 -29 -45 c-15 -25 -31 -45 -35 -45 -3 0 -19 20 -35 45 l-28 45 -63
0 -62 0 60 -87z"/>
</g>
</svg>
